<svg width="44" height="44" fill="none" xmlns="http://www.w3.org/2000/svg"><path fill="#0E0E0E" d="M0 0h44v44H0z"/><path d="M22.002 12.438a.563.563 0 00-.563.562v5.25a.562.562 0 00.563.563 3.187 3.187 0 11-2.761 1.593.56.56 0 00-.207-.768l-4.547-2.626a.561.561 0 00-.768.207 9.563 9.563 0 108.283-4.782zm-7.575 5.84l3.59 2.071a4.31 4.31 0 00-.29 2.213l-4.004 1.074a8.463 8.463 0 01.704-5.359zm-.412 6.44l4.003-1.072a4.324 4.324 0 003.421 2.625v4.144a8.457 8.457 0 01-7.424-5.696zm8.549 5.7v-4.143a4.313 4.313 0 000-8.55V13.58a8.437 8.437 0 010 16.838z" fill="#EFEEEC"/></svg>