<svg width="44" height="44" fill="none" xmlns="http://www.w3.org/2000/svg"><path fill="#0E0E0E" d="M0 0h44v44H0z"/><path d="M29.898 17.852l-5.25-5.25a.563.563 0 00-.398-.165h-9a1.313 1.313 0 00-1.313 1.313v16.5a1.313 1.313 0 001.313 1.313h13.5a1.313 1.313 0 001.313-1.313v-12c0-.15-.06-.292-.165-.398zm-5.085-3.495l3.33 3.33h-3.33v-3.33zm3.937 16.08h-13.5a.188.188 0 01-.188-.187v-16.5a.188.188 0 01.188-.188h8.438v4.688a.562.562 0 00.562.563h4.688V30.25a.188.188 0 01-.188.188z" fill="#EFEEEC"/></svg>