<svg width="44" height="44" fill="none" xmlns="http://www.w3.org/2000/svg"><path fill="#0E0E0E" d="M0 0h44v44H0z"/><path d="M28.25 17.688h-1.688V16a2.812 2.812 0 00-5.062-1.688A2.813 2.813 0 0016.437 16a2.812 2.812 0 00-4.5 2.25V22a9.563 9.563 0 0019.126 0v-1.5a2.812 2.812 0 00-2.813-2.813zm-4.5-3.375A1.687 1.687 0 0125.438 16v1.688H22.25a1.4 1.4 0 00-.188.015V16a1.687 1.687 0 011.688-1.688zM17.562 16a1.687 1.687 0 113.375 0v3.75a1.687 1.687 0 11-3.375 0V16zm-4.5 2.25a1.687 1.687 0 113.376 0v1.5a1.687 1.687 0 11-3.375 0v-1.5zM29.939 22a8.437 8.437 0 11-16.875 0A2.812 2.812 0 0017 21.437a2.812 2.812 0 004.23.31 2.83 2.83 0 001.395 1.332 4.304 4.304 0 00-1.688 3.421.562.562 0 101.125 0 3.187 3.187 0 013.188-3.188.562.562 0 100-1.125h-1.5a1.687 1.687 0 01-1.688-1.687V19a.188.188 0 01.188-.188h6a1.687 1.687 0 011.688 1.688V22z" fill="#EFEEEC"/></svg>