<svg width="44" height="44" fill="none" xmlns="http://www.w3.org/2000/svg"><path fill="#0E0E0E" d="M0 0h44v44H0z"/><path d="M14.563 22.75a.562.562 0 01-.563.563h-2.25a.562.562 0 110-1.125h.938v-6.375h-.938a.562.562 0 110-1.126h1.5a.563.563 0 01.477.263L17 20.189l3.273-5.237a.561.561 0 01.477-.264h1.5a.562.562 0 110 1.124h-.938v6.376h.938a.562.562 0 110 1.125H20a.562.562 0 110-1.125h.188V17.21l-2.71 4.337a.563.563 0 01-.955 0l-2.71-4.337v4.977H14a.562.562 0 01.563.562zm10.687-2.438h6a.562.562 0 100-1.125h-6a.562.562 0 100 1.125zm6 1.875h-6a.562.562 0 100 1.125h6a.562.562 0 100-1.125zm0 3H17a.562.562 0 100 1.125h14.25a.562.562 0 100-1.125zm0 3H17a.562.562 0 100 1.125h14.25a.562.562 0 100-1.125z" fill="#EFEEEC"/></svg>