<svg width="44" height="44" fill="none" xmlns="http://www.w3.org/2000/svg"><path fill="#0E0E0E" d="M0 0h44v44H0z"/><path d="M26 13.188c-1.983 0-3.666 1.889-4.5 4.711-.834-2.822-2.517-4.712-4.5-4.712-2.839 0-5.063 3.871-5.063 8.813s2.224 8.813 5.063 8.813c1.983 0 3.666-1.89 4.5-4.712.834 2.822 2.517 4.712 4.5 4.712 2.839 0 5.063-3.871 5.063-8.813S28.838 13.187 26 13.187zm-9 16.5c-1.71 0-3.205-2.26-3.734-5.3a2.812 2.812 0 100-4.776c.529-3.04 2.024-5.3 3.734-5.3 2.135 0 3.938 3.52 3.938 7.688 0 4.167-1.803 7.688-3.938 7.688zM13.062 22a1.687 1.687 0 113.375 0 1.687 1.687 0 01-3.375 0zM26 29.688c-1.71 0-3.205-2.26-3.734-5.3a2.812 2.812 0 100-4.776c.529-3.04 2.024-5.3 3.734-5.3 2.135 0 3.938 3.52 3.938 7.688 0 4.167-1.803 7.688-3.938 7.688zM22.062 22a1.687 1.687 0 113.375 0 1.687 1.687 0 01-3.375 0z" fill="#EFEEEC"/></svg>