<svg width="44" height="44" fill="none" xmlns="http://www.w3.org/2000/svg"><path fill="#0E0E0E" d="M0 0h44v44H0z"/><path d="M19.563 20.266v-6.75a.563.563 0 00-.75-.531 9.563 9.563 0 00-6.215 10.758.563.563 0 00.834.385l5.85-3.375a.562.562 0 00.281-.487zm-1.125-.328l-4.843 2.793a8.416 8.416 0 011.292-5.265 8.447 8.447 0 013.551-3.114v5.585zm3.563-7.5a.563.563 0 00-.563.562v8.719l-7.481 4.355a.564.564 0 00-.202.771 9.563 9.563 0 108.246-14.407zm0 18a8.484 8.484 0 01-6.974-3.686l7.255-4.226a.562.562 0 00.281-.487v-8.458a8.437 8.437 0 01-.562 16.857z" fill="#EFEEEC"/></svg>