<svg width="44" height="44" fill="none" xmlns="http://www.w3.org/2000/svg"><path fill="#0E0E0E" d="M0 0h44v44H0z"/><path d="M31.052 19.732c-1.043-.568-2.445-.977-3.99-1.169v-.688c0-1.136-.898-2.166-2.53-2.9-1.486-.67-3.45-1.037-5.532-1.037-2.081 0-4.046.368-5.531 1.037-1.633.734-2.531 1.764-2.531 2.9v3.75c0 1.136.898 2.166 2.53 2.9.984.442 2.177.75 3.47.912v.688c0 1.136.898 2.166 2.53 2.9 1.486.67 3.45 1.038 5.532 1.038 2.081 0 4.046-.369 5.531-1.038 1.63-.734 2.532-1.764 2.532-2.9v-3.75c0-.998-.714-1.937-2.01-2.643zm-.538.988c.918.5 1.424 1.093 1.424 1.655 0 1.33-2.85 2.813-6.938 2.813-.665 0-1.329-.042-1.988-.126.52-.14 1.027-.32 1.52-.537 1.63-.734 2.53-1.764 2.53-2.9v-1.928c1.35.18 2.56.537 3.452 1.023zM20.14 24.398a16.643 16.643 0 01-2.607-.023 15.463 15.463 0 01-.97-.122v-2.617c.807.119 1.621.177 2.437.177.816 0 1.63-.058 2.438-.177v2.614a14.89 14.89 0 01-1.284.146l-.014.002zm5.797-4.47v1.697c0 .894-1.289 1.856-3.375 2.392v-2.594c.676-.152 1.335-.37 1.97-.648a6.206 6.206 0 001.405-.848zM19 15.061c4.088 0 6.938 1.483 6.938 2.813s-2.85 2.813-6.938 2.813c-4.088 0-6.938-1.483-6.938-2.813s2.85-2.813 6.938-2.813zm-6.938 6.563v-1.698c.43.342.903.626 1.407.844.634.279 1.293.496 1.969.649v2.593c-2.086-.532-3.376-1.494-3.376-2.388zm6 4.5v-.589a17.275 17.275 0 002.031-.008c.44.159.889.29 1.345.395v2.594c-2.086-.536-3.375-1.498-3.375-2.392zm4.5 2.625v-2.616c.808.12 1.622.179 2.438.178.816.001 1.63-.058 2.438-.176v2.614c-1.616.25-3.26.25-4.875 0zm6-.233v-2.594c.676-.152 1.335-.37 1.97-.648a6.202 6.202 0 001.405-.844v1.694c0 .894-1.289 1.856-3.375 2.392z" fill="#EFEEEC"/></svg>