<svg width="600" height="600" fill="none" xmlns="http://www.w3.org/2000/svg"><mask id="path-1-inside-1_950_816" fill="#fff"><path d="M300 552.105c0 26.452 21.578 48.285 47.693 44.08a299.995 299.995 0 00229.471-181.38A300.004 300.004 0 00358.527 5.765 300 300 0 003.815 252.306C-.39 278.422 21.443 300 47.895 300c26.452 0 47.339-21.73 53.486-47.458a204.203 204.203 0 01120.471-141.208 204.213 204.213 0 01278.434 148.827 204.207 204.207 0 01-152.828 238.458C321.73 504.767 300 525.653 300 552.105z"/></mask><path d="M300 552.105c0 26.452 21.578 48.285 47.693 44.08a299.995 299.995 0 00229.471-181.38A300.004 300.004 0 00358.527 5.765 300 300 0 003.815 252.306C-.39 278.422 21.443 300 47.895 300c26.452 0 47.339-21.73 53.486-47.458a204.203 204.203 0 01120.471-141.208 204.213 204.213 0 01278.434 148.827 204.207 204.207 0 01-152.828 238.458C321.73 504.767 300 525.653 300 552.105z" stroke="#484848" stroke-width="2" mask="url(#path-1-inside-1_950_816)"/><circle cx="299.997" cy="300" r="64.115" stroke="#484848"/></svg>