<svg width="786" height="320" fill="none" xmlns="http://www.w3.org/2000/svg"><path d="M70.357 157.412c8.361 2.157 14.808 6.326 19.343 12.507 4.534 6.182 6.802 14.304 6.802 24.367 0 13.081-3.897 23.432-11.691 31.051-7.794 7.475-18.493 11.213-32.096 11.213H0V89.488h47.826c12.895 0 23.027 3.45 30.396 10.35 7.368 6.757 11.053 15.813 11.053 27.17 0 7.332-1.63 13.657-4.889 18.976-3.259 5.175-7.936 8.985-14.029 11.428zm-54.415-5.175h33.797c15.162 0 22.744-8.41 22.744-25.229 0-7.619-2.197-13.513-6.59-17.682-4.393-4.169-10.486-6.253-18.28-6.253H15.942v49.164zm34.647 70.944c9.069 0 16.155-2.588 21.256-7.763 5.243-5.175 7.865-12.219 7.865-21.132 0-8.913-2.622-15.885-7.865-20.917-5.101-5.175-12.187-7.763-21.256-7.763H15.942v57.575h34.647zm160.529-87.548V236.55h-14.454v-14.879c-4.11 5.75-9.14 10.279-15.092 13.585-5.952 3.163-12.47 4.744-19.556 4.744-9.494 0-17.996-2.3-25.507-6.9-7.51-4.6-13.391-10.998-17.642-19.192-4.251-8.194-6.377-17.538-6.377-28.032 0-10.35 2.055-19.551 6.164-27.601 4.252-8.194 10.062-14.591 17.43-19.191 7.511-4.601 16.013-6.901 25.507-6.901 7.227 0 13.817 1.653 19.768 4.96 6.094 3.162 11.195 7.691 15.305 13.585v-15.095h14.454zm-49.527 90.998c6.802 0 12.825-1.725 18.068-5.175 5.385-3.451 9.565-8.266 12.541-14.448 2.976-6.181 4.464-13.154 4.464-20.916 0-7.763-1.488-14.735-4.464-20.917-2.976-6.181-7.156-10.997-12.541-14.447-5.243-3.45-11.266-5.175-18.068-5.175-6.66 0-12.612 1.725-17.855 5.175-5.243 3.45-9.352 8.266-12.328 14.447-2.976 6.038-4.464 12.938-4.464 20.701 0 7.907 1.488 14.951 4.464 21.132 2.976 6.182 7.085 10.997 12.328 14.448 5.243 3.45 11.195 5.175 17.855 5.175zm137.642 9.919l-34.859-51.968-12.116 11.86v40.108h-14.454V80h14.454v97.898l43.574-42.265h18.706l-40.174 39.246 41.024 61.671h-16.155zm32.213 0V80H345.9v156.55h-14.454zm85.049-104.367c8.928 0 17.006 2.228 24.233 6.685 7.227 4.456 12.895 10.566 17.004 18.329 4.11 7.619 6.164 16.172 6.164 25.66 0 2.732-.07 4.816-.212 6.254h-81.835c.567 10.35 3.897 19.191 9.99 26.522 6.094 7.332 14.382 10.998 24.869 10.998 8.502 0 15.517-1.582 21.044-4.744 5.668-3.307 10.203-7.835 13.604-13.585l11.477 7.763c-4.676 7.475-10.84 13.369-18.492 17.682-7.652 4.169-16.722 6.253-27.208 6.253-9.636 0-18.209-2.3-25.719-6.9-7.51-4.6-13.392-10.998-17.643-19.192-4.251-8.194-6.376-17.466-6.376-27.816 0-10.351 2.055-19.623 6.164-27.817 4.251-8.194 10.061-14.591 17.43-19.191 7.51-4.601 16.012-6.901 25.506-6.901zm32.948 44.852c-1.417-10.494-4.89-18.329-10.417-23.504-5.526-5.319-13.037-7.978-22.531-7.978-9.211 0-16.791 3.018-22.743 9.056-5.81 5.894-9.495 13.369-11.054 22.426h66.745zm83.193-44.852c6.944 0 13.321 1.438 19.131 4.313 5.951 2.875 10.628 7.116 14.028 12.722 3.543 5.607 5.314 12.22 5.314 19.839v67.493h-14.454v-61.024c0-19.982-8.785-29.973-26.357-29.973-10.203 0-17.855 3.665-22.956 10.997-5.102 7.331-7.652 17.179-7.652 29.542v50.458h-14.454V135.633h14.454v16.82c3.401-6.469 7.864-11.429 13.391-14.879 5.668-3.594 12.187-5.391 19.555-5.391zm109.704 0c8.93 0 17 2.228 24.23 6.685 7.23 4.456 12.9 10.566 17.01 18.329 4.11 7.619 6.16 16.172 6.16 25.66 0 2.732-.07 4.816-.21 6.254h-81.837c.567 10.35 3.897 19.191 9.99 26.522 6.097 7.332 14.387 10.998 24.867 10.998 8.5 0 15.52-1.582 21.05-4.744 5.66-3.307 10.2-7.835 13.6-13.585l11.48 7.763c-4.68 7.475-10.84 13.369-18.49 17.682-7.66 4.169-16.73 6.253-27.21 6.253-9.64 0-18.21-2.3-25.722-6.9-7.51-4.6-13.391-10.998-17.642-19.192-4.252-8.194-6.377-17.466-6.377-27.816 0-10.351 2.055-19.623 6.164-27.817 4.251-8.194 10.061-14.591 17.43-19.191 7.507-4.601 16.017-6.901 25.507-6.901zm32.95 44.852c-1.42-10.494-4.89-18.329-10.42-23.504-5.53-5.319-13.04-7.978-22.53-7.978-9.21 0-16.79 3.018-22.744 9.056-5.81 5.894-9.494 13.369-11.053 22.426h66.747zm96.04-41.402H786L749.86 236.55h-15.94L698 135.633h15.09l29.34 85.176 28.9-85.176z" fill="#0E0E0E"/><path d="M22.262 318c-4.216 0-8.32-.934-12.312-2.802-3.991-1.919-7.308-4.494-9.95-7.725l5.144-4.09c2.024 2.878 4.61 5.175 7.758 6.892 3.148 1.666 6.549 2.499 10.203 2.499 3.992 0 7.028-.782 9.108-2.348 2.08-1.615 3.12-3.786 3.12-6.513 0-2.979-1.125-5.251-3.373-6.816-2.193-1.616-5.706-3.03-10.541-4.241-12.143-2.676-18.215-7.625-18.215-14.845 0-4.493 1.631-7.952 4.891-10.376 3.261-2.423 7.786-3.635 13.577-3.635 4.216 0 7.983.707 11.3 2.121 3.373 1.413 6.38 3.584 9.022 6.513l-4.975 3.787c-2.024-2.474-4.244-4.292-6.662-5.453-2.417-1.212-5.312-1.818-8.685-1.818-3.542 0-6.437.757-8.686 2.272-2.248 1.464-3.373 3.484-3.373 6.059 0 2.626 1.04 4.721 3.12 6.286 2.08 1.515 5.594 2.802 10.541 3.863 5.847 1.413 10.372 3.357 13.577 5.831 3.26 2.474 4.89 5.958 4.89 10.452 0 2.777-.787 5.226-2.361 7.346-1.574 2.121-3.851 3.787-6.83 4.999-2.923 1.161-6.353 1.742-10.288 1.742zm29.938-1.212v-51.652h32.21v4.771H58.523v18.026h20.238v4.62H58.523v19.54h26.141v4.695H52.2zM117.292 318c-4.778 0-9.051-1.136-12.817-3.408-3.71-2.323-6.634-5.529-8.77-9.619-2.08-4.089-3.12-8.735-3.12-13.935 0-5.201 1.04-9.846 3.12-13.936 2.136-4.14 5.06-7.346 8.77-9.618 3.766-2.323 8.039-3.484 12.817-3.484 4.779 0 9.023 1.161 12.734 3.484 3.766 2.272 6.69 5.478 8.77 9.618 2.136 4.09 3.204 8.761 3.204 14.012 0 5.2-1.068 9.845-3.204 13.935-2.08 4.039-5.004 7.22-8.77 9.543-3.711 2.272-7.955 3.408-12.734 3.408zm0-5.226c3.486 0 6.606-.909 9.361-2.726 2.811-1.868 5.003-4.444 6.577-7.725 1.574-3.333 2.361-7.094 2.361-11.285s-.787-7.952-2.361-11.285c-1.574-3.332-3.766-5.933-6.577-7.801-2.755-1.868-5.875-2.802-9.361-2.802-3.485 0-6.633.934-9.444 2.802-2.755 1.868-4.919 4.469-6.493 7.801-1.574 3.333-2.361 7.094-2.361 11.285s.787 7.952 2.361 11.285c1.574 3.281 3.738 5.857 6.493 7.725 2.811 1.817 5.959 2.726 9.444 2.726z" fill="#A7A7A5"/></svg>